<?xml version="1.0" encoding="utf-8"?>
<!-- Generator: Adobe Illustrator 27.5.0, SVG Export Plug-In . SVG Version: 6.00 Build 0)  -->
<svg version="1.1" xmlns="http://www.w3.org/2000/svg" xmlns:xlink="http://www.w3.org/1999/xlink" x="0px" y="0px"
	 viewBox="0 0 600 600" style="enable-background:new 0 0 600 600;" xml:space="preserve">
<g id="background">
	<rect style="fill:#FFFFFF;" width="600" height="600"/>
</g>
<g id="objects">
	<ellipse style="fill:#DBDBDB;" cx="300" cy="531" rx="219" ry="12"/>
	<g>
		<radialGradient id="SVGID_1_" cx="284.6027" cy="203.7261" r="303.2097" gradientUnits="userSpaceOnUse">
			<stop  offset="0" style="stop-color:#2EBFF0"/>
			<stop  offset="0.8449" style="stop-color:#114DB8"/>
			<stop  offset="1" style="stop-color:#20207A"/>
		</radialGradient>
		<circle style="fill:url(#SVGID_1_);" cx="300" cy="294.5" r="232.5"/>
		
			<linearGradient id="SVGID_00000043419797310377613850000008665201515160906631_" gradientUnits="userSpaceOnUse" x1="184.9798" y1="75.6483" x2="412.7034" y2="508.9433">
			<stop  offset="0" style="stop-color:#1362A1"/>
			<stop  offset="0.2238" style="stop-color:#105590"/>
			<stop  offset="0.2647" style="stop-color:#146EBF"/>
			<stop  offset="0.3268" style="stop-color:#0C457B"/>
			<stop  offset="0.7295" style="stop-color:#062A59"/>
			<stop  offset="0.7691" style="stop-color:#063782"/>
			<stop  offset="0.8178" style="stop-color:#031B47"/>
			<stop  offset="1" style="stop-color:#0E0E40"/>
		</linearGradient>
		<path style="fill:url(#SVGID_00000043419797310377613850000008665201515160906631_);" d="M467.938,126.562
			C423.08,81.704,363.438,57,300,57s-123.08,24.704-167.938,69.562C87.204,171.42,62.5,231.062,62.5,294.5
			s24.704,123.08,69.563,167.938C176.92,507.296,236.562,532,300,532s123.08-24.704,167.938-69.563
			C512.796,417.58,537.5,357.938,537.5,294.5S512.796,171.42,467.938,126.562z M490.349,419.201
			c-19.25,17.396-47.88,36.705-88.426,49.58c16.236-25.273,31.204-58.205,39.541-100.092c44.32-16.6,70.874-38.755,85.146-54.062
			C523.333,352.262,510.886,387.991,490.349,419.201z M345.809,517.403c-13.314,2.708-26.958,4.239-40.809,4.536v-28.47
			c26.924-0.319,50.975-3.203,72.398-7.84C365.914,499.724,354.729,510.151,345.809,517.403z M222.602,485.629
			c21.422,4.637,45.474,7.521,72.398,7.84v28.47c-13.851-0.297-27.495-1.828-40.809-4.536
			C245.271,510.151,234.086,499.724,222.602,485.629z M73.389,314.627c14.272,15.307,40.826,37.462,85.146,54.062
			c8.337,41.887,23.305,74.819,39.541,100.092c-40.546-12.875-69.176-32.184-88.426-49.58
			C89.114,387.991,76.667,352.262,73.389,314.627z M173.104,236.097c0.578-1.977,1.181-3.948,1.806-5.914
			c29.387,14.547,68.566,25.605,120.09,26.279v125.006c-53.491-0.489-95.333-8.781-127.692-20.167
			C159.501,318.106,161.444,276,173.104,236.097z M426.896,236.097c11.659,39.903,13.602,82.009,5.795,125.203
			c-32.359,11.386-74.201,19.678-127.692,20.167V256.462c51.524-0.675,90.703-11.732,120.09-26.279
			C425.715,232.149,426.319,234.12,426.896,236.097z M305,246.462V71.323c14.102,9.855,45.52,34.031,74.002,71.437
			c18.69,24.547,33.045,50.683,42.837,77.88C393.555,234.862,355.493,245.783,305,246.462z M295,246.462
			c-50.493-0.679-88.555-11.6-116.839-25.822c9.792-27.197,24.148-53.334,42.837-77.88c28.483-37.407,59.901-61.583,74.002-71.437
			V246.462z M169.554,372.568C202.11,383.347,243.329,391,295,391.467v92.001c-31.193-0.378-58.372-4.288-81.952-10.386
			C195.743,448.755,179.004,415.812,169.554,372.568z M305,483.468v-92.001c51.671-0.467,92.89-8.12,125.446-18.898
			c-9.45,43.244-26.19,76.187-43.494,100.513C363.372,479.18,336.193,483.089,305,483.468z M527.455,298.161
			c-9.419,12.488-34.138,39.228-83.922,59.073c6.903-42.769,4.524-84.493-7.102-124.16c-0.745-2.543-1.541-5.075-2.362-7.601
			c30.193-16.788,48.773-36.934,59.168-51.171C515.551,210.021,527.5,251.34,527.5,294.5
			C527.5,295.723,527.475,296.941,527.455,298.161z M487.338,165.34c-9.112,13.242-26.648,33.547-56.586,50.536
			c-10.164-27.771-24.915-54.436-44.019-79.469c-25.788-33.79-53.341-56.74-69.656-68.778
			c54.334,4.005,104.871,27.086,143.791,66.005C470.73,143.496,479.562,154.112,487.338,165.34z M139.133,133.633
			c38.92-38.919,89.457-62,143.791-66.005c-16.315,12.038-43.868,34.988-69.656,68.778c-19.104,25.034-33.856,51.698-44.019,79.469
			c-29.937-16.989-47.474-37.294-56.586-50.536C120.438,154.112,129.27,143.496,139.133,133.633z M106.762,174.302
			c10.395,14.237,28.975,34.383,59.168,51.171c-0.821,2.526-1.616,5.058-2.362,7.601c-11.626,39.667-14.004,81.391-7.102,124.16
			c-49.784-19.844-74.503-46.585-83.922-59.073c-0.019-1.22-0.045-2.438-0.045-3.661C72.5,251.34,84.449,210.021,106.762,174.302z
			 M134.222,450.287c19.218,12.148,43.242,23.524,72.823,31.552c8.936,12.187,17.953,22.205,26.205,30.257
			c-35.164-10.738-67.382-29.994-94.117-56.729C137.463,453.697,135.833,451.999,134.222,450.287z M366.75,512.096
			c8.252-8.052,17.269-18.07,26.205-30.257c29.581-8.028,53.605-19.404,72.823-31.552c-1.611,1.712-3.241,3.411-4.911,5.08
			C434.132,482.102,401.914,501.358,366.75,512.096z"/>
	</g>
</g>
</svg>
